OpenSim_Sub02_CSBaseline_LCS.mot
version=1
nRows=25
nColumns=11
inDegrees=no
endheader
time	Bot_Shank	2nd_Bot_Shank	2nd_Top_Shank	Top_Shank	Bot_Thigh	Med_Thigh	Top_Thigh	BNOx	BNOy	BNOZ
53.02000000	9143.30207621	9567.14620740	11002.05087510	10788.71081840	12636.25286096	13096.15993069	12933.14658964	141.02989447	-60.70153714	-101.93160606
53.03000000	9137.13535713	9566.83275491	11014.88591498	10819.33924009	12632.40642141	13081.73155683	12887.88473954	139.40925136	-59.52329165	-101.53640733
53.04000000	9134.33932561	9572.33466844	11038.28084590	10866.64806952	12635.24235789	13080.98102380	12856.10688554	137.98728918	-58.37664817	-100.97924655
53.05000000	9134.23105583	9582.59219603	11069.40673663	10925.94165886	12642.76105679	13090.35090387	12835.73392752	136.73974433	-57.27272576	-100.16024146
53.06000000	9136.12762197	9596.54558569	11105.43465589	10992.52436024	12652.96290448	13106.28376927	12824.68676537	135.64235321	-56.22264349	-98.97950982
53.07000000	9139.34609820	9613.13508546	11143.53567243	11061.70052585	12663.84828734	13125.22219225	12820.88629897	134.67085224	-55.23752043	-97.33716938
53.08000000	9143.20355872	9631.30094337	11180.88085499	11128.77450782	12673.41759175	13143.60874508	12822.25342820	133.80097781	-54.32847565	-95.13333788
53.09000000	9147.01707769	9649.98340743	11214.64127232	11189.05065831	12679.67120407	13157.88599999	12826.70905295	133.00846633	-53.50662821	-92.26813308
53.10000000	9150.11285750	9668.13073478	11242.02790858	11237.90088062	12680.64074820	13164.54788729	12832.19749764	132.26966406	-52.78327056	-88.64651156
53.11000000	9152.17195897	9685.00253656	11261.80346028	11273.32312819	12675.57220606	13162.08488129	12837.57371576	131.58462533	-52.17643519	-84.36153942
53.12000000	9153.33641657	9700.26288377	11274.74635308	11296.72668653	12665.28905366	13151.58103759	12842.87560017	130.98420210	-51.71291020	-79.75064367
53.13000000	9153.77907245	9713.60287815	11281.76972723	11309.74882620	12650.72019360	13134.29374520	12848.22010153	130.50130459	-51.42006879	-75.16758240
53.14000000	9153.67276873	9724.71362144	11283.78672300	11314.02681777	12632.79452844	13111.48039313	12853.72417054	130.16884301	-51.32528419	-70.96611368
53.15000000	9153.19034756	9733.28621537	11281.71048063	11311.19793179	12612.44096079	13084.39837039	12859.50475788	130.01972758	-51.45592963	-67.49999557
53.16000000	9152.50465106	9739.01176169	11276.45414037	11302.89943883	12590.58839323	13054.30506599	12865.67881422	130.08686851	-51.83937832	-65.12298616
53.17000000	9151.78852137	9741.58136212	11268.93084248	11290.76860945	12568.16572834	13022.45786893	12872.36329024	130.40317602	-52.50300350	-64.18884351
53.18000000	9151.21480062	9740.68611841	11260.05372720	11276.44271423	12546.10186871	12990.11416822	12879.67513664	131.00156033	-53.47417837	-65.05132570
53.19000000	9150.95633095	9736.01713229	11250.73593479	11261.55902371	12525.32571693	12958.53135288	12887.73130407	131.91493165	-54.78027617	-68.06419079
53.20000000	9151.18595449	9727.26550551	11241.89060550	11247.75480848	12506.76617559	12928.96681190	12896.64874324	133.17620019	-56.44867012	-73.58119687
53.21000000	9152.07651338	9714.12233979	11234.43087959	11236.66733908	12491.35214727	12902.67793431	12906.54440482	134.81827618	-58.50673345	-81.95610201
53.22000000	9153.78903553	9696.30169862	11229.25313827	11229.89590177	12479.99384203	12880.90201499	12917.51941320	136.87284616	-60.97932061	-93.51051277
53.23000000	9156.02527144	9674.41028292	11226.60225575	11227.56314230	12472.87479817	12864.09519016	12929.05964605	139.32402652	-63.79336953	-107.31614590
53.24000000	9157.89035399	9650.21436127	11225.87677551	11227.87349826	12469.23458164	12851.69884329	12939.85175376	142.09413832	-66.74862104	-120.82106706
53.25000000	9158.44954307	9625.55769809	11226.41867938	11228.90321012	12468.24967111	12843.08654023	12948.52897303	145.10137276	-69.63631521	-131.36483059
53.26000000	9156.76809859	9602.28405781	11227.56994913	11228.72851836	12469.09654529	12837.63184680	12953.72454053	148.26392101	-72.24769206	-136.28699080
